<?xml version="1.0" encoding="iso-8859-1"?>
<!-- Uploaded to: SVG Repo, www.svgrepo.com, Generator: SVG Repo Mixer Tools -->
<!DOCTYPE svg PUBLIC "-//W3C//DTD SVG 1.1//EN" "http://www.w3.org/Graphics/SVG/1.1/DTD/svg11.dtd">
<svg fill="#000000" version="1.1" id="Capa_1" xmlns="http://www.w3.org/2000/svg" xmlns:xlink="http://www.w3.org/1999/xlink" 
	  viewBox="0 0 135.844 135.844"
	 xml:space="preserve">
<g>
	<path d="M135.116,98.677c-0.644-2.221-2.616-3.893-5.062-3.893c-2.953,0-5.348,2.395-5.348,5.353c0,2.959,2.395,5.348,5.348,5.348
		c0.11,0,0.2-0.058,0.301-0.068c-2.062,4.957-6.956,8.448-12.646,8.448c-9.739,0-17.671-7.927-17.671-17.666
		c0-12.482,10.146-22.623,22.623-22.623c1.191,0,2.162-0.966,2.162-2.152c0-1.191-0.976-2.156-2.162-2.156
		c-3.47,0-6.761,0.717-9.809,1.914c0.517-1.646,0.865-3.354,0.865-5.157c0-7.963-6.477-14.431-14.429-14.431
		c-6.603,0-11.981,5.373-11.981,11.981c0,0.606,0.264,1.158,0.665,1.542c0.601,2.057,2.426,3.586,4.672,3.586
		c2.722,0,4.937-2.215,4.937-4.938c0-2.521-1.915-4.52-4.356-4.823c1.397-1.83,3.586-3.035,6.06-3.035
		c5.563,0,10.109,4.538,10.114,10.106c0,7.271-5.922,13.184-13.184,13.184c-9.371,0-17.007-7.631-17.007-17.01
		c0-12.031,9.782-21.811,21.811-21.811c1.197,0,2.157-0.968,2.157-2.154c0-1.189-0.965-2.159-2.157-2.159H70.079V24.996
		c0.543-0.367,1.038-0.836,1.45-1.44l7.515-11.082c0.448-0.665,0.495-1.516,0.11-2.225c-0.38-0.707-1.107-1.145-1.909-1.145H74.36
		c0.237-0.707,0.448-1.432,0.448-2.212C74.809,3.09,71.729,0,67.919,0c-3.807,0-6.89,3.09-6.89,6.892
		c0,0.786,0.206,1.505,0.448,2.212h-3.522c-0.799,0-1.532,0.438-1.912,1.145c-0.377,0.709-0.33,1.561,0.119,2.225l7.507,11.082
		c0.562,0.831,1.292,1.429,2.091,1.809v10.691H34.818c-1.194,0-2.162,0.971-2.162,2.16c0,1.187,0.968,2.154,2.162,2.154
		c12.026,0,21.811,9.785,21.811,21.811c0,9.379-7.636,17.009-17.018,17.009c-3.52,0-6.829-1.371-9.321-3.859
		c-2.489-2.494-3.86-5.801-3.86-9.329c0-5.571,4.535-10.106,10.109-10.106c2.463,0,4.633,1.194,6.038,3.003
		c-2.513,0.237-4.498,2.278-4.498,4.85c0,2.729,2.212,4.943,4.941,4.943c2.202,0,4-1.466,4.638-3.459
		c0.511-0.396,0.857-0.989,0.857-1.68c0-6.61-5.371-11.981-11.976-11.981c-7.955,0-14.428,6.473-14.428,14.431
		c0,1.782,0.34,3.491,0.852,5.147c-3.04-1.197-6.322-1.909-9.785-1.909c-1.192,0-2.16,0.97-2.16,2.151
		c0,1.191,0.968,2.156,2.16,2.156c12.474,0,22.625,10.152,22.625,22.629c0,9.745-7.926,17.66-17.663,17.66
		c-5.664,0-10.534-3.464-12.619-8.368c0.092,0.005,0.168,0.053,0.256,0.053c2.953,0,5.35-2.395,5.35-5.348
		c0-2.958-2.392-5.347-5.35-5.347c-2.416,0-4.375,1.624-5.044,3.807c-0.379,0.385-0.617,0.918-0.617,1.498
		c0,9.945,8.084,18.024,18.019,18.024c12.129,0,21.99-9.851,21.99-21.979c0-4.735-1.334-9.118-3.483-12.979
		c0.973,0.164,1.954,0.291,2.964,0.291c11.762,0,21.336-9.566,21.336-21.329c0-9.104-4.678-17.131-11.752-21.811h16.574v36.384
		c-0.793,0.354-1.534,0.875-2.096,1.693l-7.507,11.084c-0.43,0.639-0.469,1.456-0.14,2.142
		c-7.059,4.124-11.857,11.696-11.857,20.435c0,13.104,10.66,23.757,23.754,23.757c13.092,0,23.755-10.663,23.755-23.757
		c0-8.918-5.005-16.617-12.287-20.678c0.073-0.221,0.132-0.442,0.132-0.701c0-0.659-0.312-1.26-0.786-1.672l-7.193-10.631
		c-0.4-0.575-0.917-0.971-1.46-1.308V40.334h16.563c-7.077,4.68-11.749,12.711-11.749,21.811c0,11.757,9.565,21.328,21.325,21.328
		c1.023,0,2.015-0.121,2.985-0.306c-2.142,3.871-3.486,8.253-3.486,12.988c0,12.129,9.867,21.985,21.99,21.985
		c9.936,0,18.02-8.084,18.02-18.024C135.738,99.599,135.501,99.088,135.116,98.677z M65.76,93.498v37.257
		c-3.338-2.21-6.394-9.202-6.394-18.631C59.371,102.705,62.417,95.713,65.76,93.498z M70.073,130.771V93.509
		c3.338,2.215,6.392,9.207,6.392,18.636C76.465,121.563,73.417,128.556,70.073,130.771z M48.474,112.145
		c0-7.483,4.282-13.9,10.476-17.159c-2.413,4.303-3.91,10.33-3.91,17.159c0,6.818,1.498,12.847,3.91,17.139
		C52.755,126.024,48.474,119.591,48.474,112.145z M87.359,112.145c0,7.468-4.281,13.88-10.473,17.139
		c2.41-4.292,3.913-10.32,3.913-17.139c0-6.829-1.498-12.856-3.913-17.159C83.078,98.233,87.359,104.661,87.359,112.145z"/>
</g>
</svg>